<svg width="100" height="82" viewBox="0 0 100 82" fill="none" xmlns="http://www.w3.org/2000/svg">
<rect x="23.5541" y="61.4197" width="63.3233" height="8.76841" rx="1.88331" transform="rotate(-44.5509 23.5541 61.4197)" fill="white"/>
<path d="M32.4495 64.8854C29.5868 67.4467 27.8667 73.988 27.3645 76.9385L14.9347 65.262C20.208 63.454 24.6651 60.2399 26.2345 58.8588C29.4989 59.8004 35.3121 62.3241 32.4495 64.8854Z" fill="white"/>
<circle cx="19.4547" cy="72.7952" r="8.85155" fill="white"/>
<path d="M79.3439 21.5693C75.7656 21.6119 73.809 24.4834 72.7523 25.1476L65.9724 24.5826V19.4976C68.835 17.3883 69.739 10.0811 69.739 10.0811C69.739 10.0811 69.8897 5.37282 73.5056 2.35952C77.1216 -0.653769 83.1733 -0.151554 85.7471 0.476216L78.2139 5.74948C77.4606 7.82112 78.4022 10.0811 80.4739 12.3411C82.1312 14.149 84.1777 14.2244 84.9938 14.036L91.5854 10.0811C91.3971 11.7133 90.3048 15.731 87.4421 18.7443C83.8638 22.5109 82.9222 21.5266 79.3439 21.5693Z" fill="white"/>
<rect width="63.3233" height="8.76841" rx="1.88331" transform="matrix(-0.712628 -0.701543 -0.701543 0.712628 78.6344 61.4197)" fill="white"/>
<path d="M69.7389 64.8854C72.6015 67.4467 74.3216 73.988 74.8238 76.9385L87.2537 65.262C81.9804 63.454 77.5232 60.2399 75.9538 58.8588C72.6894 59.8004 66.8763 62.3241 69.7389 64.8854Z" fill="white"/>
<circle cx="8.85155" cy="8.85155" r="8.85155" transform="matrix(-1 0 0 1 91.5852 63.9437)" fill="white"/>
<path d="M22.8446 21.5693C26.4229 21.6119 28.3794 24.4834 29.4362 25.1476L36.2161 24.5826V19.4976C33.3534 17.3883 32.4494 10.0811 32.4494 10.0811C32.4494 10.0811 32.2988 5.37282 28.6828 2.35952C25.0669 -0.653769 19.0152 -0.151554 16.4413 0.476216L23.9746 5.74948C24.7279 7.82112 23.7862 10.0811 21.7146 12.3411C20.0573 14.149 18.0108 14.2244 17.1947 14.036L10.6031 10.0811C10.7914 11.7133 11.8837 15.731 14.7464 18.7443C18.3246 22.5109 19.2663 21.5266 22.8446 21.5693Z" fill="white"/>
<rect x="29.8555" y="59.1346" width="56.1814" height="3.87392" rx="1.88331" transform="rotate(-44.5509 29.8555 59.1346)" fill="black"/>
<rect x="69.7815" y="61.7712" width="56.1814" height="3.87392" rx="1.88331" transform="rotate(-135.433 69.7815 61.7712)" fill="black"/>
<path d="M48.9661 30.1574C76.0857 29.856 94.2911 32.4173 100.004 33.7356L50.6611 34.0879L0.753418 33.7356C5.52447 32.6684 21.8465 30.4587 48.9661 30.1574Z" fill="white"/>
<path d="M99.2503 51.6026H0C4.77105 52.6699 21.0931 54.8796 48.2127 55.1809C75.3323 55.4823 93.5376 52.921 99.2503 51.6026Z" fill="white"/>
<rect x="5.6499" y="33.8995" width="90.7755" height="17.7031" fill="black"/>
<path d="M17.2837 65.2974C17.363 65.0556 17.6662 64.9772 17.8528 65.1503L19.2365 66.434C19.3687 66.5566 19.5725 66.5584 19.7068 66.4381L21.1128 65.1789C21.3024 65.0091 21.6042 65.0928 21.6792 65.336L22.2357 67.1396C22.2889 67.3119 22.4645 67.4153 22.6409 67.3783L24.4882 66.9908C24.7373 66.9385 24.9568 67.1619 24.9002 67.41L24.4803 69.2502C24.4402 69.426 24.5406 69.6034 24.7119 69.6596L26.5054 70.2476C26.7473 70.3269 26.8257 70.6301 26.6526 70.8167L25.3689 72.2004C25.2462 72.3326 25.2444 72.5364 25.3647 72.6707L26.624 74.0767C26.7938 74.2663 26.7101 74.5681 26.4669 74.6431L24.6633 75.1996C24.491 75.2527 24.3876 75.4283 24.4246 75.6048L24.8121 77.4521C24.8644 77.7012 24.641 77.9207 24.3928 77.8641L22.5526 77.4442C22.3769 77.4041 22.1995 77.5044 22.1433 77.6757L21.5553 79.4693C21.476 79.7112 21.1728 79.7896 20.9862 79.6164L19.6025 78.3327C19.4703 78.2101 19.2665 78.2083 19.1322 78.3286L17.7262 79.5879C17.5366 79.7577 17.2348 79.674 17.1598 79.4307L16.6033 77.6271C16.5501 77.4549 16.3745 77.3514 16.1981 77.3884L14.3508 77.776C14.1017 77.8282 13.8822 77.6049 13.9388 77.3567L14.3587 75.5165C14.3988 75.3407 14.2985 75.1633 14.1271 75.1072L12.3336 74.5191C12.0917 74.4398 12.0133 74.1367 12.1864 73.9501L13.4702 72.5663C13.5928 72.4342 13.5946 72.2304 13.4743 72.0961L12.215 70.69C12.0452 70.5004 12.1289 70.1987 12.3721 70.1236L14.1757 69.5671C14.348 69.514 14.4515 69.3384 14.4144 69.1619L14.0269 67.3146C13.9746 67.0655 14.198 66.8461 14.4462 66.9027L16.2864 67.3226C16.4621 67.3627 16.6395 67.2623 16.6957 67.091L17.2837 65.2974Z" fill="black"/>
<path d="M2.80777 46.7533C2.80777 46.8075 2.80777 46.8346 2.80777 46.8617C2.82133 46.8617 2.84845 46.8617 2.88913 46.8617H6.29264C6.31976 46.8617 6.33332 46.8617 6.36044 46.8617C6.36044 46.8482 6.374 46.8075 6.374 46.7533C6.374 46.7126 6.36044 46.6855 6.36044 46.6583C6.34688 46.6583 6.31976 46.6448 6.29264 46.6448H4.76038C4.61123 46.6448 4.42139 46.5227 4.42139 46.3058V43.7294C4.42139 43.5938 4.54343 43.3904 4.76038 43.3904H6.41468C6.55028 43.3904 6.75368 43.526 6.75368 43.7294V44.3396C6.75368 44.3803 6.75368 44.3938 6.75368 44.421C6.76724 44.421 6.83504 44.421 6.90284 44.421C6.97063 44.421 7.02487 44.421 7.05199 44.421C7.05199 44.4074 7.06555 44.3803 7.06555 44.3396V42.2243C7.06555 42.1972 7.05199 42.1836 7.05199 42.1565C7.03843 42.1565 6.97063 42.1429 6.90284 42.1429C6.82148 42.1429 6.7808 42.1565 6.75368 42.1565C6.75368 42.17 6.75368 42.1972 6.75368 42.2243V42.8345C6.75368 42.9836 6.61808 43.1735 6.41468 43.1735H4.76038C4.61123 43.1735 4.42139 43.0514 4.42139 42.8345V40.2445C4.42139 40.1089 4.54343 39.9055 4.76038 39.9055H8.2995C8.4351 39.9055 8.63849 40.0411 8.63849 40.2445V41.5463C8.63849 41.587 8.63849 41.6005 8.63849 41.6276C8.65205 41.6276 8.71985 41.6276 8.78765 41.6276C8.85545 41.6276 8.90969 41.6276 8.93681 41.6276C8.93681 41.6141 8.95037 41.587 8.95037 41.5463V39.7971C8.95037 39.7564 8.93681 39.7157 8.93681 39.6886C8.93681 39.6886 8.89613 39.675 8.86901 39.675H2.88913C2.84845 39.675 2.82133 39.6886 2.80777 39.6886C2.80777 39.7021 2.80777 39.7428 2.80777 39.7971C2.80777 39.8513 2.80777 39.8784 2.80777 39.9055C2.82133 39.9055 2.84845 39.9055 2.88913 39.9055H3.75696C3.89256 39.9055 4.09595 40.0411 4.09595 40.2445V46.3058C4.09595 46.4549 3.96035 46.6448 3.75696 46.6448H2.88913C2.84845 46.6448 2.83489 46.6583 2.80777 46.6583C2.80777 46.6719 2.80777 46.7126 2.80777 46.7533ZM2.12978 46.7533C2.12978 46.5634 2.14334 46.3329 2.31962 46.1566C2.49589 45.9939 2.69929 45.9668 2.88913 45.9668H3.41796V40.5835H2.88913C2.69929 40.5835 2.49589 40.5564 2.33318 40.4073C2.1569 40.231 2.12978 40.0005 2.12978 39.7971C2.12978 39.6072 2.14334 39.3767 2.31962 39.2004C2.48233 39.0377 2.69929 38.997 2.88913 38.997H8.86901C9.04529 38.997 9.24868 39.0377 9.4114 39.1869C9.60124 39.3632 9.62836 39.6072 9.62836 39.7971V41.5463C9.62836 41.7361 9.58768 41.9395 9.43852 42.0887C9.24868 42.2921 8.99105 42.3056 8.78765 42.3056C8.57069 42.3056 8.32662 42.3056 8.13678 42.1022C7.98762 41.9531 7.9605 41.7361 7.9605 41.5463V40.5835H5.09938V42.4955H6.07569V42.2243C6.07569 42.048 6.10281 41.8446 6.25196 41.6819C6.4418 41.492 6.68588 41.4649 6.90284 41.4649C7.10623 41.4649 7.35031 41.492 7.54015 41.6819C7.70286 41.831 7.74354 42.048 7.74354 42.2243V44.3396C7.74354 44.5294 7.70286 44.7328 7.55371 44.882C7.36387 45.0854 7.10623 45.099 6.90284 45.099C6.68588 45.099 6.4418 45.099 6.25196 44.8956C6.10281 44.7464 6.07569 44.5294 6.07569 44.3396V44.0684H5.09938V45.9668H6.29264C6.46892 45.9668 6.67232 45.9939 6.8486 46.1566C7.02487 46.3329 7.05199 46.5634 7.05199 46.7533C7.05199 46.9567 7.01131 47.1736 6.8486 47.3499C6.68588 47.5126 6.46892 47.5397 6.29264 47.5397H2.88913C2.69929 47.5397 2.49589 47.5126 2.33318 47.3634C2.1569 47.1872 2.12978 46.9567 2.12978 46.7533ZM11.7252 46.7533C11.7252 46.8075 11.7252 46.8346 11.7252 46.8617C11.7252 46.8617 11.7658 46.8617 11.793 46.8617H16.444C16.4711 46.8617 16.4846 46.8617 16.5118 46.8617C16.5118 46.8482 16.5253 46.8075 16.5253 46.7533C16.5253 46.7126 16.5118 46.6855 16.5118 46.6583C16.4982 46.6583 16.4711 46.6448 16.444 46.6448H14.6134C14.4642 46.6448 14.2744 46.5227 14.2744 46.3058V40.2445C14.2744 40.1089 14.3964 39.9055 14.6134 39.9055H16.3084C16.3355 39.9055 16.3491 39.9055 16.3762 39.9055C16.3762 39.892 16.3897 39.8513 16.3897 39.7971C16.3897 39.7564 16.3762 39.7157 16.3762 39.6886C16.3762 39.6886 16.3355 39.675 16.3084 39.675H11.9285C11.8879 39.675 11.8607 39.6886 11.8472 39.6886C11.8472 39.7021 11.8472 39.7428 11.8472 39.7971C11.8472 39.8513 11.8472 39.8784 11.8472 39.9055C11.8607 39.9055 11.8879 39.9055 11.9285 39.9055H13.6235C13.7591 39.9055 13.9625 40.0411 13.9625 40.2445V46.3058C13.9625 46.4549 13.8269 46.6448 13.6235 46.6448H11.793C11.7658 46.6448 11.7387 46.6583 11.7252 46.6583C11.7252 46.6719 11.7252 46.7126 11.7252 46.7533ZM11.0472 46.7533C11.0472 46.5634 11.0607 46.3465 11.237 46.1702C11.3997 46.0075 11.6031 45.9668 11.793 45.9668H13.2845V40.5835H11.9285C11.7387 40.5835 11.5353 40.5564 11.3726 40.4073C11.1963 40.231 11.1692 40.0005 11.1692 39.7971C11.1692 39.6072 11.1963 39.3767 11.359 39.2004C11.5218 39.0377 11.7387 38.997 11.9285 38.997H16.3084C16.4846 38.997 16.688 39.0377 16.8508 39.1869C17.0406 39.3632 17.0677 39.6072 17.0677 39.7971C17.0677 40.0005 17.0406 40.231 16.8643 40.4073C16.688 40.57 16.4846 40.5835 16.3084 40.5835H14.9524V45.9668H16.444C16.6202 45.9668 16.8236 45.9939 16.9999 46.1566C17.1762 46.3329 17.2033 46.5634 17.2033 46.7533C17.2033 46.9567 17.1762 47.1872 16.9999 47.3634C16.8236 47.5262 16.6202 47.5397 16.444 47.5397H11.793C11.6031 47.5397 11.3997 47.5126 11.2506 47.3634C11.0607 47.1872 11.0472 46.9567 11.0472 46.7533ZM18.8391 46.7533C18.8391 46.8075 18.8391 46.8346 18.8391 46.8617C18.8526 46.8617 18.8798 46.8617 18.9204 46.8617H21.0629C21.09 46.8617 21.1036 46.8617 21.1307 46.8617C21.1307 46.8482 21.1442 46.8075 21.1442 46.7533C21.1442 46.7126 21.1307 46.6855 21.1307 46.6583C21.1171 46.6583 21.09 46.6448 21.0629 46.6448H20.5205C19.8561 46.6448 20.2357 46.1159 20.2357 46.1159L21.9578 43.6887C22.2697 43.2548 22.5138 43.6887 22.5138 43.6887L24.2088 46.1159C24.5884 46.6583 23.9376 46.6448 23.9376 46.6448H23.2189C23.1782 46.6448 23.1647 46.6583 23.1375 46.6583C23.1375 46.6719 23.1375 46.7126 23.1375 46.7533C23.1375 46.8075 23.1375 46.8346 23.1375 46.8617C23.1511 46.8617 23.1782 46.8617 23.2189 46.8617H25.5512C25.5783 46.8617 25.5919 46.8617 25.619 46.8617C25.619 46.8482 25.6325 46.8075 25.6325 46.7533C25.6325 46.7126 25.619 46.6855 25.619 46.6583C25.6054 46.6583 25.5783 46.6448 25.5512 46.6448H25.1715C25.0766 46.6448 24.9546 46.6041 24.8868 46.5092L22.5951 43.3226C22.5273 43.2277 22.5138 43.0514 22.5951 42.9294L24.6427 40.0547C24.6969 39.9733 24.8054 39.9055 24.9274 39.9055H25.3614C25.3885 39.9055 25.402 39.9055 25.4292 39.9055C25.4292 39.892 25.4427 39.8513 25.4427 39.7971C25.4427 39.7564 25.4292 39.7157 25.4292 39.6886C25.4292 39.6886 25.3885 39.675 25.3614 39.675H23.3409C23.3138 39.675 23.3003 39.6886 23.2731 39.6886C23.2731 39.7021 23.2731 39.7428 23.2731 39.7971C23.2731 39.8513 23.2731 39.8784 23.2731 39.9055C23.2731 39.9055 23.3138 39.9055 23.3409 39.9055H23.7477C24.3986 39.9055 24.0189 40.4479 24.0189 40.4479L22.5409 42.5362C22.229 42.9701 21.985 42.5362 21.985 42.5362L20.5205 40.4479C20.1408 39.9055 20.8053 39.9055 20.8053 39.9055H21.4019C21.429 39.9055 21.4426 39.9055 21.4697 39.9055C21.4697 39.892 21.4832 39.8513 21.4832 39.7971C21.4832 39.7564 21.4697 39.7157 21.4697 39.6886C21.4697 39.6886 21.429 39.675 21.4019 39.675H19.1238C19.0832 39.675 19.056 39.6886 19.0425 39.6886C19.0425 39.7021 19.0425 39.7428 19.0425 39.7971C19.0425 39.8513 19.0425 39.8784 19.0425 39.9055C19.056 39.9055 19.0832 39.9055 19.1238 39.9055H19.5849C19.6662 39.9055 19.7883 39.9598 19.8561 40.0547L21.9172 42.9158C21.985 43.0243 21.9985 43.187 21.9172 43.3091L19.5984 46.5092C19.5442 46.5905 19.4357 46.6448 19.3272 46.6448H18.9204C18.8798 46.6448 18.8662 46.6583 18.8391 46.6583C18.8391 46.6719 18.8391 46.7126 18.8391 46.7533ZM18.1611 46.7533C18.1611 46.5634 18.1882 46.3465 18.3509 46.1702C18.5136 46.0075 18.7306 45.9668 18.9204 45.9668H19.151L21.2256 43.1057L19.4086 40.5835H19.1238C18.934 40.5835 18.7306 40.5564 18.5679 40.4073C18.3916 40.231 18.3645 40.0005 18.3645 39.7971C18.3645 39.6072 18.378 39.3767 18.5543 39.2004C18.717 39.0377 18.934 38.997 19.1238 38.997H21.4019C21.5782 38.997 21.7816 39.0377 21.9443 39.1869C22.1341 39.3632 22.1612 39.6072 22.1612 39.7971C22.1612 40.0005 22.1206 40.2174 21.9578 40.3937C21.8087 40.5429 21.5917 40.5835 21.4561 40.5835L22.2697 41.7497L23.0969 40.57C22.9748 40.5293 22.8799 40.4886 22.7985 40.4073C22.6087 40.231 22.5951 40.0005 22.5951 39.7971C22.5951 39.6072 22.6087 39.3632 22.7985 39.1869C22.9613 39.0377 23.1511 38.997 23.3409 38.997H25.3614C25.5376 38.997 25.741 39.0377 25.9037 39.1869C26.0936 39.3632 26.1207 39.6072 26.1207 39.7971C26.1207 40.0005 26.08 40.2174 25.9173 40.3937C25.7546 40.5564 25.5376 40.5835 25.3614 40.5835H25.0902L23.2867 43.1192L25.3342 45.9668H25.5512C25.7275 45.9668 25.9309 45.9939 26.1071 46.1566C26.2834 46.3329 26.3105 46.5634 26.3105 46.7533C26.3105 46.9567 26.2834 47.1872 26.1071 47.3634C25.9309 47.5262 25.7275 47.5397 25.5512 47.5397H23.2189C23.0291 47.5397 22.8257 47.5126 22.6629 47.3634C22.4867 47.1872 22.4595 46.9567 22.4595 46.7533C22.4595 46.5634 22.4731 46.3329 22.6494 46.1566C22.8257 45.9939 23.0291 45.9668 23.2189 45.9668H23.2867L22.229 44.4752L21.1714 45.9803C21.3476 45.9939 21.4832 46.0346 21.6188 46.1566C21.7951 46.3329 21.8222 46.5634 21.8222 46.7533C21.8222 46.9567 21.7951 47.1872 21.6188 47.3634C21.4426 47.5262 21.2392 47.5397 21.0629 47.5397H18.9204C18.7306 47.5397 18.5272 47.5126 18.3645 47.3634C18.1882 47.1872 18.1611 46.9567 18.1611 46.7533ZM34.9517 46.7533C34.9517 46.8075 34.9517 46.8346 34.9517 46.8617C34.9517 46.8617 34.9924 46.8617 35.0195 46.8617H37.1078C37.1213 46.8617 37.1484 46.8617 37.162 46.8617C37.162 46.8482 37.1756 46.8075 37.1756 46.7533C37.1756 46.7126 37.162 46.6855 37.162 46.6583C37.1484 46.6583 37.1213 46.6448 37.1078 46.6448H36.3755C36.1721 46.6448 36.023 46.4821 36.0365 46.3058L36.1721 40.8819C36.1721 40.4751 36.823 40.7734 36.823 40.7734L38.179 44.543C38.2468 44.7193 38.2603 44.7464 38.4637 44.7464C38.6807 44.7464 38.6943 44.7193 38.7621 44.543L40.1045 40.7734C40.2401 40.3937 40.7553 40.8819 40.7553 40.8819L40.9045 46.3058C40.9181 46.5092 40.7553 46.6448 40.5655 46.6448H39.8333C39.8062 46.6448 39.7926 46.6583 39.7655 46.6583C39.7655 46.6719 39.7519 46.7126 39.7519 46.7533C39.7519 46.8075 39.7655 46.8346 39.7655 46.8617C39.779 46.8617 39.8062 46.8617 39.8333 46.8617H41.9079C41.9486 46.8617 41.9622 46.8617 41.9893 46.8617C41.9893 46.8482 41.9893 46.8075 41.9893 46.7533C41.9893 46.7126 41.9893 46.6855 41.9893 46.6583C41.9757 46.6583 41.9486 46.6448 41.9079 46.6448H41.5554C41.3791 46.6448 41.2299 46.5092 41.2299 46.3193L41.0537 40.2581C41.0401 40.0547 41.2028 39.9055 41.3791 39.9055H41.7181C41.7452 39.9055 41.7723 39.9055 41.7859 39.9055C41.7859 39.892 41.7859 39.8513 41.7859 39.7971C41.7859 39.7564 41.7859 39.7157 41.7859 39.6886C41.7859 39.6886 41.7452 39.675 41.7181 39.675H40.335C40.3079 39.6886 40.2672 39.6886 40.2536 39.6886L38.7892 43.7159C38.5722 44.3125 38.1519 43.7159 38.1519 43.7159L36.6738 39.6886C36.6603 39.6886 36.6467 39.6886 36.6196 39.6886H35.2229C35.1823 39.6886 35.1551 39.6886 35.1416 39.6886C35.1416 39.7021 35.1416 39.7428 35.1416 39.8106C35.1416 39.8513 35.1416 39.8784 35.1416 39.9055C35.1551 39.9055 35.1823 39.9191 35.2229 39.9191H35.5484C35.7382 39.9191 35.8874 40.0818 35.8738 40.2581L35.7111 46.3193C35.7111 46.4956 35.5619 46.6583 35.3857 46.6583H35.0195C34.9924 46.6583 34.9653 46.6583 34.9517 46.6583C34.9517 46.6719 34.9517 46.7126 34.9517 46.7533ZM34.2738 46.7533C34.2738 46.5634 34.2873 46.3465 34.4636 46.1702C34.6263 46.0075 34.8297 45.9803 35.0195 45.9803H35.0467L35.1958 40.5835C34.9924 40.5835 34.8161 40.5564 34.667 40.4073C34.4907 40.231 34.4636 40.0005 34.4636 39.8106C34.4636 39.6072 34.4772 39.3767 34.6534 39.2004C34.8161 39.0377 35.0331 39.0106 35.2229 39.0106H36.6196C36.9179 39.0106 37.2162 39.1598 37.3112 39.4716L38.4637 42.6175L39.6028 39.4716C39.7384 39.1055 40.0367 39.0106 40.3214 38.997H41.7181C41.9079 38.997 42.1113 39.0377 42.274 39.1869C42.4639 39.3767 42.4639 39.6072 42.4639 39.7971C42.4639 40.0005 42.4503 40.2174 42.274 40.3937C42.1113 40.5564 41.8944 40.5835 41.7317 40.5835L41.8944 45.9668H41.9079C42.0978 45.9668 42.3012 45.9939 42.4774 46.1566C42.6537 46.3329 42.6673 46.5634 42.6673 46.7533C42.6673 46.9567 42.6537 47.1872 42.4774 47.3634C42.3012 47.5262 42.0978 47.5397 41.9079 47.5397H39.8333C39.657 47.5397 39.4536 47.5126 39.2909 47.3634C39.1146 47.1872 39.0739 46.9567 39.0739 46.7533C39.0739 46.5634 39.101 46.3329 39.2773 46.1566C39.4536 45.9939 39.657 45.9668 39.8333 45.9668H40.2265L40.1316 42.7124L39.3994 44.7735C39.2638 45.1396 38.9519 45.4244 38.4637 45.4244C37.9891 45.4244 37.6773 45.1396 37.5417 44.7735L36.7959 42.7124L36.7145 45.9668H37.1078C37.284 45.9668 37.4874 45.9939 37.6501 46.1566C37.84 46.3329 37.8535 46.5634 37.8535 46.7533C37.8535 46.9567 37.8264 47.1736 37.6501 47.3499C37.4874 47.5126 37.284 47.5397 37.1078 47.5397H35.0195C34.8297 47.5397 34.6263 47.5126 34.4772 47.3634C34.2873 47.1872 34.2738 46.9567 34.2738 46.7533ZM44.52 46.7533C44.52 46.8075 44.52 46.8346 44.52 46.8617C44.5336 46.8617 44.5607 46.8617 44.6014 46.8617H48.5879C48.6151 46.8617 48.6286 46.8617 48.6557 46.8617C48.6557 46.8482 48.6693 46.8075 48.6693 46.7533C48.6693 46.7126 48.6557 46.6855 48.6557 46.6583C48.6422 46.6583 48.6151 46.6448 48.5879 46.6448H47.0828C46.9336 46.6448 46.7438 46.5227 46.7438 46.3058V43.9464C46.7438 43.9057 46.7574 43.8243 46.7845 43.7701L49.0897 40.0683C49.1575 39.9733 49.2659 39.9055 49.388 39.9055H49.849C49.8626 39.9055 49.8897 39.9055 49.9032 39.9055C49.9032 39.892 49.9168 39.8513 49.9168 39.7971C49.9168 39.7564 49.9032 39.7157 49.9032 39.6886C49.9032 39.6886 49.8626 39.675 49.849 39.675H47.8286C47.7879 39.675 47.7608 39.6886 47.7472 39.6886C47.7472 39.7021 47.7472 39.7428 47.7472 39.7971C47.7472 39.8513 47.7472 39.8784 47.7472 39.9055C47.7608 39.9055 47.7879 39.9055 47.8286 39.9055H48.2625C48.8998 39.9055 48.5473 40.4344 48.5473 40.4344L46.8794 43.1463C46.554 43.6616 46.2963 43.1463 46.2963 43.1463L44.642 40.4344C44.3166 39.8784 44.9404 39.9055 44.9404 39.9055H45.5505C45.5777 39.9055 45.5912 39.9055 45.6183 39.9055C45.6183 39.892 45.6319 39.8513 45.6319 39.7971C45.6319 39.7564 45.6183 39.7157 45.6183 39.6886C45.6183 39.6886 45.5777 39.675 45.5505 39.675H43.3403C43.2996 39.675 43.2725 39.6886 43.2589 39.6886C43.2589 39.7021 43.2589 39.7428 43.2589 39.7971C43.2589 39.8513 43.2589 39.8784 43.2589 39.9055C43.2725 39.9055 43.2996 39.9055 43.3403 39.9055H43.8013C43.9098 39.9055 44.0183 39.9733 44.0861 40.0683L46.3777 43.7701C46.4048 43.8108 46.4319 43.8921 46.4319 43.9464V46.3058C46.4319 46.4549 46.2963 46.6448 46.0929 46.6448H44.6014C44.5607 46.6448 44.5471 46.6583 44.52 46.6583C44.52 46.6719 44.52 46.7126 44.52 46.7533ZM43.842 46.7533C43.842 46.5634 43.8556 46.3329 44.0318 46.1566C44.2081 45.9939 44.4115 45.9668 44.6014 45.9668H45.7539V44.0549L43.6115 40.5835H43.3403C43.1505 40.5835 42.9471 40.5564 42.7843 40.4073C42.6081 40.231 42.5809 40.0005 42.5809 39.7971C42.5809 39.6072 42.5945 39.3767 42.7708 39.2004C42.9335 39.0377 43.1505 38.997 43.3403 38.997H45.5505C45.7268 38.997 45.9302 39.0377 46.0929 39.1869C46.2828 39.3632 46.3099 39.6072 46.3099 39.7971C46.3099 40.0005 46.2828 40.231 46.1065 40.4073C45.9302 40.57 45.7268 40.5835 45.5505 40.5835C45.5505 40.5835 46.5133 42.1836 46.5946 42.3192L47.6523 40.5835C47.5167 40.5564 47.3811 40.5157 47.2726 40.4073C47.0964 40.231 47.0692 40.0005 47.0692 39.7971C47.0692 39.6072 47.0964 39.3767 47.2591 39.2004C47.4218 39.0377 47.6388 38.997 47.8286 38.997H49.849C50.0253 38.997 50.2287 39.0377 50.3914 39.1869C50.5812 39.3767 50.5948 39.6072 50.5948 39.7971C50.5948 40.0005 50.5677 40.2174 50.3914 40.3937C50.2287 40.5564 50.0253 40.5835 49.849 40.5835H49.5642L47.4218 44.0549V45.9668H48.5879C48.7642 45.9668 48.9676 45.9939 49.1439 46.1566C49.3202 46.3329 49.3473 46.5634 49.3473 46.7533C49.3473 46.9567 49.3066 47.1736 49.1439 47.3499C48.9812 47.5126 48.7642 47.5397 48.5879 47.5397H44.6014C44.4115 47.5397 44.2081 47.5126 44.0454 47.3634C43.8691 47.1872 43.842 46.9567 43.842 46.7533ZM59.6292 46.7533C59.6292 46.8075 59.6292 46.8346 59.6292 46.8617C59.6428 46.8617 59.6699 46.8617 59.7106 46.8617H62.8294C63.3039 46.8617 63.7243 46.7804 64.104 46.6177C65.2701 46.1431 65.9752 45.0312 65.9752 43.2684C65.9752 42.6989 65.8939 42.1972 65.7312 41.7497C65.3244 40.5293 64.4159 39.675 62.8294 39.675H59.7106C59.6699 39.675 59.6428 39.6886 59.6292 39.6886C59.6292 39.7021 59.6292 39.7428 59.6292 39.7971C59.6292 39.8513 59.6292 39.8784 59.6292 39.9055C59.6428 39.9055 59.6699 39.9055 59.7106 39.9055H60.4564C60.592 39.9055 60.7954 40.0411 60.7954 40.2445V46.3058C60.7954 46.4549 60.6598 46.6448 60.4564 46.6448H59.7106C59.6699 46.6448 59.6564 46.6583 59.6292 46.6583C59.6292 46.6719 59.6292 46.7126 59.6292 46.7533ZM58.9512 46.7533C58.9512 46.5634 58.9648 46.3329 59.1411 46.1566C59.3174 45.9939 59.5208 45.9668 59.7106 45.9668H60.1174V40.5835H59.7106C59.5208 40.5835 59.3174 40.5564 59.1546 40.4073C58.9784 40.231 58.9512 40.0005 58.9512 39.7971C58.9512 39.6072 58.9648 39.3767 59.1411 39.2004C59.3038 39.0377 59.5208 38.997 59.7106 38.997H62.8294C64.7142 38.997 65.8803 40.0954 66.382 41.5192C66.5583 42.048 66.6532 42.6446 66.6532 43.2684C66.6532 45.221 65.8261 46.6312 64.3752 47.255C63.9006 47.4448 63.3717 47.5397 62.8294 47.5397H59.7106C59.5208 47.5397 59.3174 47.5126 59.1546 47.3634C58.9784 47.1872 58.9512 46.9567 58.9512 46.7533ZM62.6802 46.6448H61.4463C61.2971 46.6448 61.1073 46.5227 61.1073 46.3058V40.2445C61.1073 40.1089 61.2293 39.9055 61.4463 39.9055H62.6802C63.1006 39.9055 63.4938 39.9869 63.8599 40.1361C65.026 40.6107 65.5956 41.7632 65.5956 43.2684C65.5956 45.1668 64.6735 46.6448 62.6802 46.6448ZM62.6802 45.9668C64.2125 45.9668 64.9176 44.9498 64.9176 43.2684C64.9176 41.926 64.443 41.1124 63.6023 40.7598C63.3311 40.6513 63.0192 40.5835 62.6802 40.5835H61.7852V45.9668H62.6802ZM67.7466 46.7533C67.7466 46.8075 67.7466 46.8346 67.7466 46.8617C67.7601 46.8617 67.7873 46.8617 67.8279 46.8617H70.4857C70.5128 46.8617 70.5264 46.8617 70.5535 46.8617C70.5535 46.8482 70.567 46.8075 70.567 46.7533C70.567 46.7126 70.5535 46.6855 70.5535 46.6583C70.5399 46.6583 70.5128 46.6448 70.4857 46.6448H69.6314C69.4822 46.6448 69.2924 46.5227 69.2924 46.3058V43.7972C69.2924 43.6616 69.4144 43.4582 69.6314 43.4582H70.0382C70.2416 43.4582 70.445 43.4718 70.6213 43.4989C71.7467 43.6481 72.2349 44.5294 72.6146 45.2074C72.9129 45.7498 73.3197 46.5227 73.618 46.7261C73.7671 46.8346 73.8892 46.8617 73.9977 46.8617H74.4587C74.4858 46.8617 74.4994 46.8617 74.5265 46.8617C74.5265 46.8482 74.5401 46.8075 74.5401 46.7533C74.5401 46.7126 74.5265 46.6855 74.5265 46.6583C74.5129 46.6583 74.4858 46.6448 74.4587 46.6448H74.3367C73.7536 46.6448 73.496 46.1566 73.3468 45.9125C73.0756 45.4651 72.8586 45.004 72.601 44.6379C72.3434 44.2854 72.14 44.0277 71.8145 43.8786C71.245 43.6209 71.8823 43.2413 71.8823 43.2413C72.7908 43.0379 73.4688 42.5497 73.4688 41.5734C73.4688 41.2886 73.4146 41.031 73.3197 40.8005C73.0214 40.0954 72.3162 39.675 71.1772 39.675H67.8279C67.7873 39.675 67.7601 39.6886 67.7466 39.6886C67.7466 39.7021 67.7466 39.7428 67.7466 39.7971C67.7466 39.8513 67.7466 39.8784 67.7466 39.9055C67.7601 39.9055 67.7873 39.9055 67.8279 39.9055H68.628C68.7636 39.9055 68.967 40.0411 68.967 40.2445V46.3058C68.967 46.4549 68.8314 46.6448 68.628 46.6448H67.8279C67.7873 46.6448 67.7737 46.6583 67.7466 46.6583C67.7466 46.6719 67.7466 46.7126 67.7466 46.7533ZM67.0686 46.7533C67.0686 46.5634 67.0822 46.3329 67.2584 46.1566C67.4347 45.9939 67.6381 45.9668 67.8279 45.9668H68.289V40.5835H67.8279C67.6381 40.5835 67.4347 40.5564 67.272 40.4073C67.0957 40.231 67.0686 40.0005 67.0686 39.7971C67.0686 39.6072 67.0822 39.3767 67.2584 39.2004C67.4212 39.0377 67.6381 38.997 67.8279 38.997H71.1772C72.479 38.997 73.5095 39.5123 73.9434 40.5293C74.079 40.8547 74.1468 41.2073 74.1468 41.5734C74.1468 42.6717 73.4688 43.3497 72.6959 43.6887C72.8858 43.8786 73.0078 44.0549 73.1434 44.2447C73.4688 44.6922 73.6722 45.1532 73.9299 45.5464C74.1061 45.8583 74.2282 45.9668 74.3367 45.9668H74.4587C74.635 45.9668 74.8384 45.9939 75.0147 46.1566C75.1909 46.3329 75.2181 46.5634 75.2181 46.7533C75.2181 46.9567 75.1909 47.1872 75.0147 47.3634C74.8384 47.5262 74.635 47.5397 74.4587 47.5397H73.9977C73.7129 47.5397 73.4553 47.4448 73.2248 47.2821C72.6824 46.8889 72.3027 46.0481 72.0179 45.5464C71.6247 44.8278 71.2857 44.2718 70.5399 44.1769C70.3908 44.1498 70.2145 44.1362 70.0382 44.1362H69.9704V45.9668H70.4857C70.662 45.9668 70.8653 45.9939 71.0416 46.1566C71.2179 46.3329 71.245 46.5634 71.245 46.7533C71.245 46.9567 71.2179 47.1872 71.0416 47.3634C70.8653 47.5262 70.662 47.5397 70.4857 47.5397H67.8279C67.6381 47.5397 67.4347 47.5126 67.272 47.3634C67.0957 47.1872 67.0686 46.9567 67.0686 46.7533ZM73.1027 41.5734C73.1027 42.8616 72.0179 43.2277 70.9738 43.2277H69.6314C69.4822 43.2277 69.2924 43.1057 69.2924 42.8887V40.2445C69.2924 40.1089 69.4144 39.9055 69.6314 39.9055H71.0416C72.0993 39.9055 73.1027 40.3801 73.1027 41.5734ZM72.4247 41.5734C72.4247 40.909 71.9501 40.5835 71.0416 40.5835H69.9704V42.5497H70.9738C71.9366 42.5497 72.4247 42.3056 72.4247 41.5734ZM76.664 46.7533C76.664 46.8075 76.664 46.8346 76.664 46.8617C76.664 46.8617 76.7047 46.8617 76.7318 46.8617H81.3828C81.4099 46.8617 81.4235 46.8617 81.4506 46.8617C81.4506 46.8482 81.4642 46.8075 81.4642 46.7533C81.4642 46.7126 81.4506 46.6855 81.4506 46.6583C81.437 46.6583 81.4099 46.6448 81.3828 46.6448H79.5522C79.4031 46.6448 79.2132 46.5227 79.2132 46.3058V40.2445C79.2132 40.1089 79.3353 39.9055 79.5522 39.9055H81.2472C81.2743 39.9055 81.2879 39.9055 81.315 39.9055C81.315 39.892 81.3286 39.8513 81.3286 39.7971C81.3286 39.7564 81.315 39.7157 81.315 39.6886C81.315 39.6886 81.2743 39.675 81.2472 39.675H76.8674C76.8267 39.675 76.7996 39.6886 76.786 39.6886C76.786 39.7021 76.786 39.7428 76.786 39.7971C76.786 39.8513 76.786 39.8784 76.786 39.9055C76.7996 39.9055 76.8267 39.9055 76.8674 39.9055H78.5623C78.6979 39.9055 78.9013 40.0411 78.9013 40.2445V46.3058C78.9013 46.4549 78.7657 46.6448 78.5623 46.6448H76.7318C76.7047 46.6448 76.6775 46.6583 76.664 46.6583C76.664 46.6719 76.664 46.7126 76.664 46.7533ZM75.986 46.7533C75.986 46.5634 75.9995 46.3465 76.1758 46.1702C76.3385 46.0075 76.5419 45.9668 76.7318 45.9668H78.2234V40.5835H76.8674C76.6775 40.5835 76.4741 40.5564 76.3114 40.4073C76.1351 40.231 76.108 40.0005 76.108 39.7971C76.108 39.6072 76.1351 39.3767 76.2979 39.2004C76.4606 39.0377 76.6775 38.997 76.8674 38.997H81.2472C81.4235 38.997 81.6269 39.0377 81.7896 39.1869C81.9794 39.3632 82.0065 39.6072 82.0065 39.7971C82.0065 40.0005 81.9794 40.231 81.8031 40.4073C81.6269 40.57 81.4235 40.5835 81.2472 40.5835H79.8912V45.9668H81.3828C81.5591 45.9668 81.7625 45.9939 81.9387 46.1566C82.115 46.3329 82.1421 46.5634 82.1421 46.7533C82.1421 46.9567 82.115 47.1872 81.9387 47.3634C81.7625 47.5262 81.5591 47.5397 81.3828 47.5397H76.7318C76.5419 47.5397 76.3385 47.5126 76.1894 47.3634C75.9995 47.1872 75.986 46.9567 75.986 46.7533ZM90.8426 39.7971C90.8426 39.7564 90.829 39.7157 90.829 39.6886C90.829 39.6886 90.7883 39.675 90.7612 39.675H88.551C88.5103 39.675 88.4832 39.6886 88.4696 39.6886C88.4696 39.7021 88.4696 39.7428 88.4696 39.7971C88.4696 39.8513 88.4696 39.8784 88.4696 39.9055C88.4832 39.9055 88.5103 39.9055 88.551 39.9055H89.2154C89.7307 39.9055 89.5273 40.3666 89.5273 40.3666L87.4797 46.2109C87.2763 46.8075 86.8424 46.2109 86.8424 46.2109L84.8084 40.3666C84.6322 39.8649 85.1339 39.9055 85.1339 39.9055H86.0695C86.0966 39.9055 86.1102 39.9055 86.1373 39.9055C86.1373 39.892 86.1509 39.8513 86.1509 39.7971C86.1509 39.7564 86.1373 39.7157 86.1373 39.6886C86.1373 39.6886 86.0966 39.675 86.0695 39.675H83.6016C83.5609 39.675 83.5338 39.6886 83.5203 39.6886C83.5203 39.7021 83.5203 39.7428 83.5203 39.7971C83.5203 39.8513 83.5203 39.8784 83.5203 39.9055C83.5338 39.9055 83.5609 39.9055 83.6016 39.9055H84.1033C84.2118 39.9055 84.361 40.0005 84.4152 40.1361L86.7746 46.8075V46.8211C86.8153 46.9567 86.8424 47.0109 87.1407 47.0109C87.4526 47.0109 87.4933 46.9567 87.5475 46.8075L89.9205 40.1361C89.9612 40.0276 90.0832 39.9055 90.2324 39.9055H90.7476C90.7883 39.9055 90.8019 39.9055 90.829 39.9055C90.829 39.892 90.8426 39.8513 90.8426 39.7971ZM91.5206 39.7971C91.5206 40.0005 91.4934 40.231 91.3172 40.4073C91.1409 40.57 90.9375 40.5835 90.7476 40.5835H90.4764L88.1848 47.038C88.0221 47.4855 87.6289 47.6889 87.1407 47.6889C86.6661 47.6889 86.2729 47.4855 86.1373 47.0245L83.8593 40.5835H83.6016C83.4118 40.5835 83.2084 40.5564 83.0457 40.4073C82.8694 40.231 82.8423 40.0005 82.8423 39.7971C82.8423 39.6072 82.8558 39.3767 83.0321 39.2004C83.1948 39.0377 83.4118 38.997 83.6016 38.997H86.0695C86.2458 38.997 86.4492 39.0377 86.6119 39.1869C86.8017 39.3632 86.8289 39.6072 86.8289 39.7971C86.8289 40.0005 86.8017 40.231 86.6255 40.4073C86.4492 40.57 86.2458 40.5835 86.0695 40.5835H85.6085L87.1679 45.0718L88.7272 40.5835H88.551C88.3611 40.5835 88.1577 40.5564 87.995 40.4073C87.8187 40.231 87.7916 40.0005 87.7916 39.7971C87.7916 39.6072 87.8052 39.3767 87.9814 39.2004C88.1442 39.0377 88.3611 38.997 88.551 38.997H90.7612C90.9375 38.997 91.1409 39.0377 91.3036 39.1869C91.4934 39.3632 91.5206 39.6072 91.5206 39.7971ZM92.0986 46.7533C92.0986 46.8075 92.0986 46.8346 92.0986 46.8617C92.1122 46.8617 92.1393 46.8617 92.18 46.8617H98.0921C98.1192 46.8617 98.1328 46.8617 98.1599 46.8617C98.1599 46.8482 98.1734 46.8075 98.1734 46.7533V44.7871C98.1734 44.76 98.1599 44.7328 98.1599 44.7057C98.1463 44.7057 98.0785 44.6922 98.0107 44.6922C97.9294 44.6922 97.8887 44.7057 97.8616 44.7057C97.8616 44.7193 97.8616 44.76 97.8616 44.7871V46.3058C97.8616 46.4549 97.726 46.6448 97.5226 46.6448H93.8479C93.6987 46.6448 93.5089 46.5227 93.5089 46.3058V43.5938C93.5089 43.4582 93.6309 43.2548 93.8479 43.2548H95.5022C95.6378 43.2548 95.8412 43.3904 95.8412 43.5938V44.204C95.8412 44.2447 95.8412 44.2718 95.8412 44.2989C95.8547 44.2989 95.9225 44.2989 96.0039 44.2989C96.0717 44.2989 96.1124 44.2989 96.1395 44.2989C96.1395 44.2854 96.153 44.2447 96.153 44.204V42.1022C96.153 42.0751 96.1395 42.0616 96.1395 42.0209C96.1259 42.0209 96.0581 42.0073 96.0039 42.0073C95.9225 42.0073 95.8683 42.0209 95.8412 42.0209C95.8412 42.0344 95.8412 42.0751 95.8412 42.1022V42.6989C95.8412 42.848 95.7056 43.0379 95.5022 43.0379H93.8479C93.6987 43.0379 93.5089 42.9158 93.5089 42.6989V40.2445C93.5089 40.1089 93.6309 39.9055 93.8479 39.9055H97.387C97.5226 39.9055 97.726 40.0411 97.726 40.2445V41.4785C97.726 41.5192 97.726 41.5327 97.726 41.5598C97.7395 41.5598 97.8073 41.5598 97.8887 41.5598C97.9565 41.5598 97.9972 41.5598 98.0243 41.5598C98.0243 41.5463 98.0378 41.5192 98.0378 41.4785V39.7971C98.0378 39.7564 98.0243 39.7157 98.0243 39.6886C98.0243 39.6886 97.9836 39.675 97.97 39.675H92.18C92.1393 39.675 92.1122 39.6886 92.0986 39.6886C92.0986 39.7021 92.0986 39.7428 92.0986 39.7971C92.0986 39.8513 92.0986 39.8784 92.0986 39.9055C92.1122 39.9055 92.1393 39.9055 92.18 39.9055H92.858C92.9936 39.9055 93.197 40.0411 93.197 40.2445V46.3058C93.197 46.4549 93.0614 46.6448 92.858 46.6448H92.18C92.1393 46.6448 92.1258 46.6583 92.0986 46.6583C92.0986 46.6719 92.0986 46.7126 92.0986 46.7533ZM91.4207 46.7533C91.4207 46.5634 91.4342 46.3329 91.6105 46.1566C91.7868 45.9939 91.9902 45.9668 92.18 45.9668H92.519V40.5835H92.18C91.9902 40.5835 91.7868 40.5564 91.6241 40.4073C91.4478 40.231 91.4207 40.0005 91.4207 39.7971C91.4207 39.6072 91.4342 39.3767 91.6105 39.2004C91.7732 39.0377 91.9902 38.997 92.18 38.997H97.97C98.1463 38.997 98.3497 39.0377 98.5124 39.1869C98.7023 39.3767 98.7158 39.6072 98.7158 39.7971V41.4785C98.7158 41.6683 98.6752 41.8717 98.526 42.0344C98.3362 42.2243 98.0921 42.2378 97.8887 42.2378C97.6717 42.2378 97.4277 42.2243 97.2378 42.0344C97.0751 41.8853 97.048 41.6683 97.048 41.4785V40.5835H94.1869V42.3599H95.1632V42.1022C95.1632 41.926 95.1903 41.709 95.3394 41.5598C95.5293 41.3564 95.7869 41.3293 96.0039 41.3293C96.2073 41.3293 96.4514 41.3429 96.6412 41.5463C96.8039 41.709 96.831 41.926 96.831 42.1022V44.204C96.831 44.3938 96.7903 44.6108 96.6276 44.76C96.4514 44.9634 96.2073 44.9769 96.0039 44.9769C95.7869 44.9769 95.5293 44.9634 95.3394 44.76C95.1903 44.6108 95.1632 44.3938 95.1632 44.204V43.9328H94.1869V45.9668H97.1836V44.7871C97.1836 44.6108 97.2107 44.3938 97.3734 44.2447C97.5497 44.0413 97.7938 44.0142 98.0107 44.0142C98.2141 44.0142 98.4718 44.0413 98.6616 44.2447C98.8108 44.3938 98.8514 44.6108 98.8514 44.7871V46.7533C98.8514 46.9567 98.8243 47.1872 98.648 47.3634C98.4718 47.5262 98.2684 47.5397 98.0921 47.5397H92.18C91.9902 47.5397 91.7868 47.5126 91.6241 47.3634C91.4478 47.1872 91.4207 46.9567 91.4207 46.7533Z" fill="white"/>
<path d="M80.9395 65.2974C81.0188 65.0556 81.322 64.9772 81.5086 65.1503L82.8923 66.434C83.0245 66.5566 83.2283 66.5584 83.3626 66.4381L84.7686 65.1789C84.9582 65.0091 85.26 65.0928 85.335 65.336L85.8915 67.1396C85.9446 67.3119 86.1202 67.4153 86.2967 67.3783L88.144 66.9908C88.3931 66.9385 88.6126 67.1619 88.556 67.41L88.1361 69.2502C88.096 69.426 88.1963 69.6034 88.3676 69.6596L90.1612 70.2476C90.4031 70.3269 90.4815 70.6301 90.3083 70.8167L89.0246 72.2004C88.902 72.3326 88.9002 72.5364 89.0205 72.6707L90.2798 74.0767C90.4496 74.2663 90.3659 74.5681 90.1226 74.6431L88.319 75.1996C88.1468 75.2527 88.0433 75.4283 88.0803 75.6048L88.4679 77.4521C88.5201 77.7012 88.2968 77.9207 88.0486 77.8641L86.2084 77.4442C86.0326 77.4041 85.8552 77.5044 85.7991 77.6757L85.211 79.4693C85.1317 79.7112 84.8286 79.7896 84.642 79.6164L83.2582 78.3327C83.1261 78.2101 82.9223 78.2083 82.788 78.3286L81.3819 79.5879C81.1923 79.7577 80.8906 79.674 80.8155 79.4307L80.259 77.6271C80.2059 77.4549 80.0303 77.3514 79.8538 77.3884L78.0066 77.776C77.7574 77.8282 77.538 77.6049 77.5946 77.3567L78.0145 75.5165C78.0546 75.3407 77.9542 75.1633 77.7829 75.1072L75.9893 74.5191C75.7475 74.4398 75.6691 74.1367 75.8422 73.9501L77.1259 72.5663C77.2485 72.4342 77.2503 72.2304 77.13 72.0961L75.8708 70.69C75.701 70.5004 75.7847 70.1987 76.0279 70.1236L77.8315 69.5671C78.0038 69.514 78.1072 69.3384 78.0702 69.1619L77.6827 67.3146C77.6304 67.0655 77.8538 66.8461 78.1019 66.9027L79.9421 67.3226C80.1179 67.3627 80.2953 67.2623 80.3515 67.091L80.9395 65.2974Z" fill="black"/>
</svg>
